<svg preserveAspectRatio="none" width="100%" height="100%" overflow="visible" style="display: block;" viewBox="0 0 48.0722 48" fill="none" xmlns="http://www.w3.org/2000/svg">
<g id="Frame 39922">
<rect x="0.5" y="0.5" width="47.0722" height="47" rx="23.5" fill="var(--fill-0, white)"/>
<rect x="0.5" y="0.5" width="47.0722" height="47" rx="23.5" stroke="var(--stroke-0, white)"/>
<path id="Vector" d="M37.6072 32.5334C39.2128 30.0025 40.0722 27.0677 40.0722 24C40.0722 20.9323 39.2128 17.9958 37.6072 15.4666V12.5816H35.2671C32.2507 9.62526 28.2683 8 24.0361 8C19.8039 8 15.8215 9.62526 12.8052 12.58H10.465V15.4649C8.85943 17.9958 8 20.9323 8 24C8 27.0677 8.85943 30.0042 10.465 32.5334V39.661H20.735C21.8093 39.8837 22.9135 40 24.0361 40C25.1587 40 26.263 39.8853 27.3373 39.661H37.6072V32.5334ZM39.3727 24C39.3727 26.531 38.7598 28.9672 37.6072 31.1425V16.8558C38.7614 19.0312 39.3727 21.4674 39.3727 23.9983V24ZM22.164 13.2779C21.5561 13.8031 21.1713 14.5758 21.1713 15.44C21.1713 16.5534 21.8143 17.5206 22.7486 17.9925H21.5744L12.8268 13.5588C12.9151 13.4641 13.005 13.371 13.095 13.2796H22.164V13.2779ZM34.9773 13.2779C35.0689 13.371 35.1571 13.4641 35.2454 13.5571L26.4978 17.9909H25.3236C26.258 17.5189 26.9009 16.5534 26.9009 15.4383C26.9009 14.5758 26.5162 13.8014 25.9082 13.2763H34.9773V13.2779ZM36.9077 17.9909H28.0418L35.7284 14.0956C36.1582 14.5991 36.5512 15.1259 36.9093 15.6726V17.9909H36.9077ZM27.8636 18.6888L26.6627 20.7744V18.6905H26.6661L27.8636 18.6888ZM22.1091 23.4582L23.5864 26.1221H22.1091V23.4582ZM23.9728 26.8201L23.9795 26.8301L23.9862 26.8201H24.9405V38.9647H23.0917V26.8201H23.9728ZM24.3859 26.1221L25.9632 23.3851V26.1221H24.3859ZM23.9895 25.4109L22.1074 22.0174V19.0445L24.0345 20.0216L25.9615 19.0445V21.9859L23.9878 25.4109H23.9895ZM21.4062 18.6888H21.4095V20.7561L20.2636 18.6888H21.4062ZM26.2014 15.4383C26.2014 16.6298 25.2303 17.6003 24.0345 17.6003C22.8386 17.6003 21.8675 16.6315 21.8675 15.4383C21.8675 14.2451 22.8386 13.2763 24.0345 13.2763C25.2303 13.2763 26.2014 14.2451 26.2014 15.4383ZM12.3438 14.0956L20.0304 17.9909H11.1646V15.6726C11.521 15.1259 11.9158 14.5991 12.3455 14.0956H12.3438ZM11.1646 18.6888H19.4641L21.4095 22.1969V26.388L16.0147 37.0486C15.0021 36.4254 14.0544 35.6809 13.1916 34.8201C12.4221 34.0523 11.7442 33.2165 11.1646 32.3274V18.6888ZM21.9741 26.8201H22.3922V38.9647H20.8082C19.3375 38.6523 17.9285 38.1255 16.6193 37.4009L21.9741 26.8201ZM25.6384 38.963V26.8184H26.0981L31.4529 37.3993C30.1421 38.1238 28.7347 38.6489 27.264 38.963H25.6384ZM32.0575 37.0486L26.6627 26.388V22.172L28.6697 18.6872H36.9077V32.3257C36.3264 33.2148 35.6502 34.0507 34.8807 34.8184C34.0179 35.6793 33.0702 36.4238 32.0575 37.0469V37.0486ZM24.0361 8.69796C27.8403 8.69796 31.4313 10.0706 34.2444 12.58H13.8278C16.641 10.0706 20.232 8.69796 24.0361 8.69796ZM8.69954 24C8.69954 21.469 9.31247 19.0328 10.465 16.8575V31.1442C9.3108 28.9688 8.69954 26.5326 8.69954 24.0017V24ZM11.1646 38.963V33.5455C11.6276 34.1654 12.1389 34.7553 12.6969 35.312C14.3258 36.9373 16.2462 38.1703 18.3382 38.963H11.1646ZM29.734 38.963C31.826 38.1703 33.7447 36.9389 35.3753 35.312C35.9333 34.7553 36.4446 34.1654 36.9077 33.5455V38.963H29.734Z" fill="var(--fill-0, #C8C3C8)"/>
</g>
</svg>
