<svg width="56" height="56" viewBox="0 0 56 56" fill="none" xmlns="http://www.w3.org/2000/svg">
<mask id="mask0_1436_4597" style="mask-type:luminance" maskUnits="userSpaceOnUse" x="0" y="0" width="56" height="56">
<path d="M55.3453 9.29533L9.29535 0L2.0837e-05 46.0499L46.05 55.3453L55.3453 9.29533Z" fill="white"/>
</mask>
<g mask="url(#mask0_1436_4597)">
<path d="M23.6513 22.3678C24.4289 22.2252 25.6951 22.6306 25.9525 23.5812C26.0951 24.3588 26.1795 25.4242 26.2086 25.2803C26.3248 24.7047 26.5572 23.5534 26.8173 23.0069C27.0483 22.6042 27.4233 22.2306 28.0279 22.2029C28.4887 22.1461 28.9204 22.2332 29.3521 22.3204C29.7548 22.5514 30.1284 22.9264 30.3581 23.2723C30.7595 24.2519 30.3819 26.1227 30.4109 25.9788C30.642 25.5761 30.9034 24.281 31.3074 23.7634C31.5094 23.5047 32.1431 23.3331 32.46 23.2473C32.9207 23.1905 33.4964 23.3067 33.899 23.5377C34.1868 23.5958 34.6753 24.1437 34.7611 24.4606C34.9618 24.9504 34.8152 26.4185 34.8429 27.0232C34.8139 27.1671 35.103 26.4766 35.478 26.103C36.2279 25.3557 38.3007 25.4746 38.0379 27.5183C37.8346 28.5257 37.8636 28.3818 37.7184 29.1013C37.5732 29.8208 37.486 30.2526 37.3698 30.8282C37.2536 31.4038 36.8483 32.6699 36.5882 33.2165C36.3571 33.6192 35.7221 34.5394 35.1742 35.0278C35.1742 35.0278 33.2426 36.4352 32.9244 37.2696C32.6063 38.104 32.6063 38.104 32.4901 38.6796C32.3739 39.2552 32.3725 40.0038 32.3725 40.0038C32.3725 40.0038 31.1922 39.9153 30.6457 39.6552C30.0991 39.3951 29.5829 38.2425 29.5261 37.7818C29.3255 37.292 28.8937 37.2048 28.5188 37.5784C28.1148 38.096 27.1919 38.9581 26.7602 38.8709C25.7238 38.8115 23.7382 38.2609 22.2991 37.9704C22.2991 37.9704 22.8774 36.5895 22.418 35.8977C22.0734 35.3788 21.4991 34.514 21.1545 33.9952L20.2647 32.4676C19.9492 31.8049 19.0871 30.882 19.1188 29.2409C19.0924 27.8877 19.2377 27.1681 19.6417 26.6506C20.0457 26.1331 20.8233 25.9905 21.1111 26.0486C21.3989 26.1067 22.1184 26.2519 22.3772 26.4539C22.636 26.6559 22.7508 26.8289 22.9805 27.1748C23.1812 27.6646 23.267 27.9815 23.2393 27.3768C23.1826 26.916 22.9819 26.4262 22.9542 25.8216C22.9265 25.2169 22.64 24.4102 22.8143 23.5468C22.0947 23.4015 22.4129 22.5672 23.6513 22.3678Z" fill="white"/>
</g>
<mask id="mask1_1436_4597" style="mask-type:luminance" maskUnits="userSpaceOnUse" x="0" y="0" width="56" height="56">
<path d="M55.3453 9.29533L9.29535 0L2.0837e-05 46.0499L46.05 55.3453L55.3453 9.29533Z" fill="white"/>
</mask>
<g mask="url(#mask1_1436_4597)">
<path d="M23.6513 22.3678C24.4289 22.2252 25.6951 22.6306 25.9525 23.5812C26.0951 24.3588 26.1795 25.4242 26.2086 25.2803C26.3248 24.7047 26.5572 23.5534 26.8173 23.0069C27.0483 22.6042 27.4233 22.2306 28.0279 22.2029C28.4887 22.1461 28.9204 22.2332 29.3521 22.3204C29.7548 22.5514 30.1284 22.9264 30.3581 23.2723C30.7595 24.2519 30.3819 26.1227 30.4109 25.9788C30.642 25.5761 30.9034 24.281 31.3074 23.7634C31.5094 23.5047 32.1431 23.3331 32.46 23.2473C32.9207 23.1905 33.4964 23.3067 33.899 23.5377C34.1868 23.5958 34.6753 24.1437 34.7611 24.4606C34.9618 24.9504 34.8152 26.4185 34.8429 27.0232C34.8139 27.1671 35.103 26.4766 35.478 26.103C36.2279 25.3557 38.3007 25.4746 38.0379 27.5183C37.8346 28.5257 37.8636 28.3818 37.7184 29.1013C37.5732 29.8208 37.486 30.2526 37.3698 30.8282C37.2536 31.4038 36.8483 32.6699 36.5882 33.2165C36.3571 33.6192 35.7221 34.5394 35.1742 35.0278C35.1742 35.0278 33.2426 36.4352 32.9244 37.2696C32.6063 38.104 32.6063 38.104 32.4901 38.6796C32.3739 39.2552 32.3725 40.0038 32.3725 40.0038C32.3725 40.0038 31.1922 39.9153 30.6457 39.6552C30.0991 39.3951 29.5829 38.2425 29.5261 37.7818C29.3255 37.292 28.8937 37.2048 28.5188 37.5784C28.1148 38.096 27.1919 38.9581 26.7602 38.8709C25.7238 38.8115 23.7382 38.2609 22.2991 37.9704C22.2991 37.9704 22.8774 36.5895 22.418 35.8977C22.0734 35.3788 21.4991 34.514 21.1545 33.9952L20.2647 32.4676C19.9492 31.8049 19.0871 30.882 19.1188 29.2409C19.0924 27.8877 19.2377 27.1681 19.6417 26.6506C20.0457 26.1331 20.8233 25.9905 21.1111 26.0486C21.3989 26.1067 22.1184 26.2519 22.3772 26.4539C22.636 26.6559 22.7508 26.8289 22.9805 27.1748C23.1812 27.6646 23.267 27.9815 23.2393 27.3768C23.1826 26.916 22.9819 26.4262 22.9542 25.8216C22.9265 25.2169 22.64 24.4102 22.8143 23.5468C22.0947 23.4015 22.4129 22.5672 23.6513 22.3678Z" stroke="black" stroke-width="1.10106" stroke-linejoin="round"/>
</g>
<mask id="mask2_1436_4597" style="mask-type:luminance" maskUnits="userSpaceOnUse" x="0" y="0" width="56" height="56">
<path d="M55.3453 9.29533L9.29535 0L2.0837e-05 46.0499L46.05 55.3453L55.3453 9.29533Z" fill="white"/>
</mask>
<g mask="url(#mask2_1436_4597)">
<path d="M31.488 35.482L32.4756 30.5892" stroke="black" stroke-width="1.10106" stroke-linecap="round"/>
</g>
<mask id="mask3_1436_4597" style="mask-type:luminance" maskUnits="userSpaceOnUse" x="0" y="0" width="56" height="56">
<path d="M55.3453 9.29533L9.29535 0L2.0837e-05 46.0499L46.05 55.3453L55.3453 9.29533Z" fill="white"/>
</mask>
<g mask="url(#mask3_1436_4597)">
<path d="M28.61 34.9011L29.4537 29.9792" stroke="black" stroke-width="1.10106" stroke-linecap="round"/>
</g>
<mask id="mask4_1436_4597" style="mask-type:luminance" maskUnits="userSpaceOnUse" x="0" y="0" width="56" height="56">
<path d="M55.3453 9.29533L9.29535 0L2.0837e-05 46.0499L46.05 55.3453L55.3453 9.29533Z" fill="white"/>
</mask>
<g mask="url(#mask4_1436_4597)">
<path d="M26.7194 29.4272L25.7318 34.3201" stroke="black" stroke-width="1.10106" stroke-linecap="round"/>
</g>
</svg>
